# xmcd
#
# Track frame offsets:
#	150
#	25717
#	43497
#	60632
#	77140
#	95920
#	118070
#	135192
#	148760
#	166537
#	184805
#	203462
#	218480
#	240657
#	262530
#	278615
#	294102
#	313615
#
# Disc length: 4449 seconds
#
# Revision: 0
# Processed by: cddbd v1.5.2PL0 Copyright (c) Steve Scherf et al.
# Submitted via: EasyCDDAExtractor 12.0.3.1
#
DISCID=f0115f12
DTITLE=Various Artist - Remember
DYEAR=2008
DGENRE=pop
TTITLE0=Spandau Ballet - True
TTITLE1=The Bangles - Eternal Flame
TTITLE2=Paul Young - Every Time You Go Away
TTITLE3=Leo Sayer - More Than I Can Say
TTITLE4=Gazebo - I Like Chopin
TTITLE5=Surface - Shower Me With Your Love
TTITLE6=Cyndi Lauper - Time After Time
TTITLE7=Ben E. King - Stand By Me
TTITLE8=The Cars - Drive
TTITLE9=Air Supply - All Out Of Love
TTITLE10=Phil Collins and Marilyn Martin - Separate Lives
TTITLE11=Journey - Open Arms
TTITLE12=REO Speedwagon - Can't Fight This Feeling
TTITLE13=Foreigner - I Want To Know What Love Is
TTITLE14=Debbie Gibson - Lost In You Eyes
TTITLE15=Simply Red - If You Don't Know Me By Now
TTITLE16=Bad English - When I See You Smile
TTITLE17=Starship - Nothing Gonna Stop Us Now
EXTD=
EXTT0=
EXTT1=
EXTT2=
EXTT3=
EXTT4=
EXTT5=
EXTT6=
EXTT7=
EXTT8=
EXTT9=
EXTT10=
EXTT11=
EXTT12=
EXTT13=
EXTT14=
EXTT15=
EXTT16=
EXTT17=
PLAYORDER=
